<svg width="66" height="53" viewBox="0 0 66 53" fill="none" xmlns="http://www.w3.org/2000/svg">
<path fill-rule="evenodd" clip-rule="evenodd" d="M1.62 0C2.5147 0 3.24 0.725299 3.24 1.62L3.24 49.68H8.10019V25.38H18.9002V49.68H22.1402V32.94H32.9402V49.68H36.1802V25.38H46.9802V49.68H50.2202V18.9H61.0202V49.68H64.26C65.1547 49.68 65.88 50.4053 65.88 51.3C65.88 52.1947 65.1547 52.92 64.26 52.92H2.7C2.51066 52.92 2.32891 52.8875 2.16001 52.8278C1.99111 52.8875 1.80935 52.92 1.62 52.92C0.725299 52.92 0 52.1947 0 51.3L2.17158e-06 1.62C2.2107e-06 0.725299 0.725301 0 1.62 0ZM41.5802 17.82C43.9661 17.82 45.9002 15.8859 45.9002 13.5C45.9002 13.1687 45.8629 12.8462 45.7923 12.5363L52.9937 10.3204C53.7489 11.5783 55.1263 12.42 56.7002 12.42C59.0861 12.42 61.0202 10.4859 61.0202 8.09999C61.0202 5.71412 59.0861 3.77999 56.7002 3.77999C54.3143 3.77999 52.3802 5.71412 52.3802 8.09999C52.3802 8.1497 52.381 8.19921 52.3827 8.24852L44.773 10.5899C43.983 9.72361 42.8451 9.17999 41.5802 9.17999C39.1943 9.17999 37.2602 11.1141 37.2602 13.5C37.2602 14.1339 37.3967 14.7359 37.642 15.2782L30.5949 22.3253C29.8131 21.5435 28.7331 21.06 27.5402 21.06C26.5755 21.06 25.6846 21.3762 24.9656 21.9107L17.379 14.3241C17.6615 13.7497 17.8202 13.1034 17.8202 12.42C17.8202 10.0341 15.8861 8.09999 13.5002 8.09999C11.1143 8.09999 9.18019 10.0341 9.18019 12.42C9.18019 14.8059 11.1143 16.74 13.5002 16.74C14.4173 16.74 15.2676 16.4542 15.9671 15.9669L23.602 23.6018C23.3567 24.1441 23.2202 24.7461 23.2202 25.38C23.2202 27.7659 25.1543 29.7 27.5402 29.7C29.9261 29.7 31.8602 27.7659 31.8602 25.38C31.8602 24.993 31.8093 24.6179 31.7139 24.261L39.0056 16.9693C39.7246 17.5038 40.6155 17.82 41.5802 17.82Z" fill="white"/>
</svg>
