<svg width="29" height="44" viewBox="0 0 29 44" fill="none" xmlns="http://www.w3.org/2000/svg">
<path fill-rule="evenodd" clip-rule="evenodd" d="M16.0814 0.792897L13.4099 0.0769144C12.215 -0.243342 10.9867 0.465735 10.6664 1.66068L7.34407 14.057H9.19932L11.3535 6.01914C11.6738 4.82419 12.9021 4.11511 14.0971 4.43537L21.0922 6.31014C22.2872 6.63039 22.9963 7.85871 22.676 9.05366L21.3351 14.057H23.8094L26.0283 5.77779C26.3485 4.58285 25.6394 3.35453 24.4445 3.03428L21.5566 2.2603C20.8487 2.95736 19.6523 3.2498 18.444 2.92596C17.2356 2.60211 16.3458 1.75054 16.0814 0.792897ZM23.6293 14.729H25.312C27.1677 14.729 28.672 16.2334 28.672 18.089V40.041C28.672 41.8967 27.1677 43.401 25.312 43.401H3.36C1.50432 43.401 0 41.8967 0 40.041V18.089C0 16.2334 1.50432 14.729 3.36 14.729H7.22422H9.01921H21.155H23.6293ZM19.8576 9.00266L12.7498 7.18109L13.0279 6.09615L20.1357 7.91772L19.8576 9.00266ZM12.096 9.57705L19.936 11.5931L20.2149 10.5083L12.3749 8.49234L12.096 9.57705ZM16.8 13.609L11.2 12.265L11.4614 11.176L17.0614 12.52L16.8 13.609ZM24.64 28.953C24.64 34.5819 20.0769 39.145 14.448 39.145C8.81911 39.145 4.256 34.5819 4.256 28.953C4.256 23.3242 8.81911 18.761 14.448 18.761C20.0769 18.761 24.64 23.3242 24.64 28.953ZM15.232 24.137C15.232 23.6422 14.8308 23.241 14.336 23.241C13.8412 23.241 13.44 23.6422 13.44 24.137V29.7272C13.4398 29.7446 13.4402 29.762 13.441 29.7794C13.447 29.9092 13.4807 30.0318 13.5363 30.1415C13.5895 30.247 13.6645 30.3435 13.7602 30.4236C13.7754 30.4363 13.7909 30.4485 13.8069 30.4602L17.3824 33.1418C17.7783 33.4387 18.3399 33.3585 18.6368 32.9626C18.9337 32.5668 18.8535 32.0051 18.4576 31.7082L15.232 29.289V24.137Z" fill="black"/>
<path fill-rule="evenodd" clip-rule="evenodd" d="M16.0814 0.792897L13.4099 0.0769144C12.215 -0.243342 10.9867 0.465735 10.6664 1.66068L7.34407 14.057H9.19932L11.3535 6.01914C11.6738 4.82419 12.9021 4.11511 14.0971 4.43537L21.0922 6.31014C22.2872 6.63039 22.9963 7.85871 22.676 9.05366L21.3351 14.057H23.8094L26.0283 5.77779C26.3485 4.58285 25.6394 3.35453 24.4445 3.03428L21.5566 2.2603C20.8487 2.95736 19.6523 3.2498 18.444 2.92596C17.2356 2.60211 16.3458 1.75054 16.0814 0.792897ZM23.6293 14.729H25.312C27.1677 14.729 28.672 16.2334 28.672 18.089V40.041C28.672 41.8967 27.1677 43.401 25.312 43.401H3.36C1.50432 43.401 0 41.8967 0 40.041V18.089C0 16.2334 1.50432 14.729 3.36 14.729H7.22422H9.01921H21.155H23.6293ZM19.8576 9.00266L12.7498 7.18109L13.0279 6.09615L20.1357 7.91772L19.8576 9.00266ZM12.096 9.57705L19.936 11.5931L20.2149 10.5083L12.3749 8.49234L12.096 9.57705ZM16.8 13.609L11.2 12.265L11.4614 11.176L17.0614 12.52L16.8 13.609ZM24.64 28.953C24.64 34.5819 20.0769 39.145 14.448 39.145C8.81911 39.145 4.256 34.5819 4.256 28.953C4.256 23.3242 8.81911 18.761 14.448 18.761C20.0769 18.761 24.64 23.3242 24.64 28.953ZM15.232 24.137C15.232 23.6422 14.8308 23.241 14.336 23.241C13.8412 23.241 13.44 23.6422 13.44 24.137V29.7272C13.4398 29.7446 13.4402 29.762 13.441 29.7794C13.447 29.9092 13.4807 30.0318 13.5363 30.1415C13.5895 30.247 13.6645 30.3435 13.7602 30.4236C13.7754 30.4363 13.7909 30.4485 13.8069 30.4602L17.3824 33.1418C17.7783 33.4387 18.3399 33.3585 18.6368 32.9626C18.9337 32.5668 18.8535 32.0051 18.4576 31.7082L15.232 29.289V24.137Z" fill="black"/>
<path fill-rule="evenodd" clip-rule="evenodd" d="M16.0814 0.792897L13.4099 0.0769144C12.215 -0.243342 10.9867 0.465735 10.6664 1.66068L7.34407 14.057H9.19932L11.3535 6.01914C11.6738 4.82419 12.9021 4.11511 14.0971 4.43537L21.0922 6.31014C22.2872 6.63039 22.9963 7.85871 22.676 9.05366L21.3351 14.057H23.8094L26.0283 5.77779C26.3485 4.58285 25.6394 3.35453 24.4445 3.03428L21.5566 2.2603C20.8487 2.95736 19.6523 3.2498 18.444 2.92596C17.2356 2.60211 16.3458 1.75054 16.0814 0.792897ZM23.6293 14.729H25.312C27.1677 14.729 28.672 16.2334 28.672 18.089V40.041C28.672 41.8967 27.1677 43.401 25.312 43.401H3.36C1.50432 43.401 0 41.8967 0 40.041V18.089C0 16.2334 1.50432 14.729 3.36 14.729H7.22422H9.01921H21.155H23.6293ZM19.8576 9.00266L12.7498 7.18109L13.0279 6.09615L20.1357 7.91772L19.8576 9.00266ZM12.096 9.57705L19.936 11.5931L20.2149 10.5083L12.3749 8.49234L12.096 9.57705ZM16.8 13.609L11.2 12.265L11.4614 11.176L17.0614 12.52L16.8 13.609ZM24.64 28.953C24.64 34.5819 20.0769 39.145 14.448 39.145C8.81911 39.145 4.256 34.5819 4.256 28.953C4.256 23.3242 8.81911 18.761 14.448 18.761C20.0769 18.761 24.64 23.3242 24.64 28.953ZM15.232 24.137C15.232 23.6422 14.8308 23.241 14.336 23.241C13.8412 23.241 13.44 23.6422 13.44 24.137V29.7272C13.4398 29.7446 13.4402 29.762 13.441 29.7794C13.447 29.9092 13.4807 30.0318 13.5363 30.1415C13.5895 30.247 13.6645 30.3435 13.7602 30.4236C13.7754 30.4363 13.7909 30.4485 13.8069 30.4602L17.3824 33.1418C17.7783 33.4387 18.3399 33.3585 18.6368 32.9626C18.9337 32.5668 18.8535 32.0051 18.4576 31.7082L15.232 29.289V24.137Z" fill="white"/>
</svg>
