<svg width="68" height="59" viewBox="0 0 68 59" fill="none" xmlns="http://www.w3.org/2000/svg">
<path fill-rule="evenodd" clip-rule="evenodd" d="M48.5356 0.799988C47.398 0.799988 46.4758 1.72218 46.4758 2.85976V11.0989C46.4758 12.2364 47.398 13.1586 48.5356 13.1586C49.6732 13.1586 50.5954 12.2364 50.5954 11.0989V2.85976C50.5954 1.72218 49.6732 0.799988 48.5356 0.799988ZM24.8843 6.9793H27.9377V11.0989C27.9377 13.374 29.7821 15.2184 32.0572 15.2184C34.3324 15.2184 36.1768 13.374 36.1768 11.0989V6.9793H44.4159V11.0989C44.4159 13.374 46.2603 15.2184 48.5355 15.2184C50.8106 15.2184 52.655 13.374 52.655 11.0989V6.9793H58.7159C61.7792 6.9793 64.2666 8.7083 65.5211 11.0989H67.0733L66.0797 12.4637C66.1486 12.692 66.2071 12.9239 66.2546 13.1586H67.314V48.2337C67.314 53.8891 62.7294 58.4737 57.074 58.4737H25.7988C21.5861 58.4737 17.9675 55.9298 16.3955 52.2943H8.09129C2.22232 52.2943 -1.47778 45.9781 1.39218 40.8588L18.1851 10.9037C19.5439 8.48007 22.1057 6.9793 24.8843 6.9793ZM22.6798 52.2943C23.5434 52.9587 24.625 53.3537 25.7988 53.3537H57.074C59.9017 53.3537 62.194 51.0614 62.194 48.2337V24.815L50.4589 48.0738C49.1531 50.662 46.5011 52.2943 43.6022 52.2943H22.6798ZM18.1718 21.3977H58.1834L45.8878 45.7675C45.4525 46.6302 44.5685 47.1743 43.6022 47.1743H8.09129C6.13497 47.1743 4.9016 45.0689 5.85825 43.3625L18.1718 21.3977ZM19.0088 27.577C18.1528 27.577 17.3535 28.0048 16.8787 28.717L16.1725 29.7763C15.0383 31.4776 16.2579 33.7564 18.3026 33.7564H20.3882C21.2441 33.7564 22.0434 33.3286 22.5182 32.6164L23.2245 31.5571C24.3586 29.8558 23.1391 27.577 21.0944 27.577H19.0088ZM12.7593 36.9561C13.234 36.2439 14.0334 35.8161 14.8893 35.8161H16.9749C19.0196 35.8161 20.2391 38.0949 19.105 39.7962L18.3988 40.8555C17.924 41.5677 17.1247 41.9954 16.2687 41.9954H14.1831C12.1384 41.9954 10.9189 39.7167 12.053 38.0154L12.7593 36.9561ZM31.3676 27.577C30.5116 27.577 29.7123 28.0048 29.2375 28.717L28.5313 29.7763C27.3971 31.4776 28.6167 33.7564 30.6613 33.7564H32.747C33.6029 33.7564 34.4022 33.3286 34.877 32.6164L35.5832 31.5571C36.7174 29.8558 35.4978 27.577 33.4532 27.577H31.3676ZM41.5961 28.717C42.0709 28.0048 42.8702 27.577 43.7262 27.577H45.8118C47.8565 27.577 49.076 29.8558 47.9418 31.5571L47.2356 32.6164C46.7608 33.3286 45.9615 33.7564 45.1056 33.7564H43.02C40.9753 33.7564 39.7557 31.4776 40.8899 29.7763L41.5961 28.717ZM39.6065 35.8161C38.7506 35.8161 37.9513 36.2439 37.4765 36.9561L36.7703 38.0154C35.6361 39.7167 36.8557 41.9954 38.9003 41.9954H40.9859C41.8419 41.9954 42.6412 41.5677 43.116 40.8555L43.8222 39.7962C44.9564 38.0949 43.7368 35.8161 41.6921 35.8161H39.6065ZM25.1179 36.9561C25.5927 36.2439 26.392 35.8161 27.2479 35.8161H29.3335C31.3782 35.8161 32.5978 38.0949 31.4636 39.7962L30.7574 40.8555C30.2826 41.5677 29.4833 41.9954 28.6273 41.9954H26.5417C24.497 41.9954 23.2775 39.7167 24.4116 38.0154L25.1179 36.9561ZM29.9976 2.85976C29.9976 1.72218 30.9198 0.799988 32.0574 0.799988C33.1949 0.799988 34.1171 1.72218 34.1171 2.85976V11.0989C34.1171 12.2364 33.1949 13.1586 32.0574 13.1586C30.9198 13.1586 29.9976 12.2364 29.9976 11.0989V2.85976Z" fill="white"/>
</svg>
